<?xml version="1.0" encoding="utf-8"?>
<!-- Generator: Adobe Illustrator 24.1.0, SVG Export Plug-In . SVG Version: 6.00 Build 0)  -->
<svg version="1.1" id="Calque_1" xmlns="http://www.w3.org/2000/svg" xmlns:xlink="http://www.w3.org/1999/xlink" x="0px" y="0px"
	 viewBox="0 0 595.28 841.89" style="enable-background:new 0 0 595.28 841.89;" xml:space="preserve">
<style type="text/css">
	.st0{fill:#B06BA9;}
	.st1{fill:#99CB99;}
</style>
<g>
	<path class="st0" d="M168.28,233.59v-2.51h2.33c4,0,5.21-4.56,5.21-8.83v-45.66c-1.77-2.33-3.25-5.02-6.14-5.02h-1.4v-2.42h35.34
		l25.2,34.5V176.3c0-2.6-2.88-4.65-6.32-4.65h-1.86v-2.51h19.16v2.51h-2.79c-4.84,0-4.74,3.63-4.74,11.25v50.69h-15.62l-37.57-51.71
		v40.36c0,4.28,0.93,8.83,5.39,8.83h2.98v2.51H168.28z"/>
	<path class="st0" d="M240.91,169.14h43.25v2.51h-7.72v49.1c0,6.42,4.65,9.3,10.97,9.3c8.18,0,13.48-3.53,13.48-20.09v-27.34
		c0-8.74-1.67-10.97-5.95-10.97h-2.42v-2.51h19.16v2.51h-3.07c-2.51,0-4.46,2.05-4.46,11.44v33.2c0,7.07-3.16,12.28-9.49,15.62
		c-2.98,1.58-9.02,3.07-17.48,3.07c-5.77,0-10.6-0.84-14.6-1.67c-6.23-1.3-14.14-4.74-14.14-18.69v-42.97h-7.53V169.14z"/>
	<path class="st0" d="M314.57,233.59v-2.51h7.07v-59.43h-7.07v-2.51h42.97v2.51h-7.07v59.43h7.07v2.51H314.57z"/>
	<path class="st0" d="M380.79,171.65c-10.88,0.93-15.16,12.09-17.3,21.2h-2.88l0.46-23.72h68.08l0.46,23.72h-2.88
		c-2.14-9.11-6.42-20.27-17.3-21.2v59.43h8.46v2.51h-45.66v-2.51h8.56V171.65z"/>
	<path class="st0" d="M164.88,305.59v-1.62h4.74v-38.34H165v-1.62h41.52l0.3,15.3h-1.92c-2.34-11.16-8.16-13.68-13.2-13.68h-3.6
		v18.18h1.02c1.86,0,6.06-1.98,6.6-8.16h1.98v18.3h-1.98c-0.54-6.54-4.74-8.52-6.6-8.52h-1.02v18.54h5.1v1.62H164.88z"/>
	<path class="st0" d="M208.5,305.59v-1.62h4.56v-38.34h-4.56v-1.62h28.2v1.62h-5.28v38.34h2.76c9.06,0,11.82-7.38,13.62-14.88h1.74
		v16.5H208.5z"/>
	<path class="st0" d="M251.82,305.59v-1.62h4.44v-38.34h-4.44v-1.62h40.26l0.3,14.58h-1.98c-1.68-6.6-5.76-12.96-12.3-12.96h-3.66
		v18.18h1.02c1.86,0,6.06-1.98,6.6-8.16h1.98v18.3h-1.98c-0.54-6.54-4.74-8.52-6.6-8.52h-1.02v18.54h4.08
		c4.56,0,9.3-3.36,12.6-14.22h1.8l-0.3,15.84H251.82z"/>
	<path class="st0" d="M295.13,264.02h27.9v1.62h-4.98v31.68c0,4.14,3,6,7.08,6c5.28,0,8.7-2.28,8.7-12.96v-17.64
		c0-5.64-1.08-7.08-3.84-7.08h-1.56v-1.62h12.36v1.62h-1.98c-1.62,0-2.88,1.32-2.88,7.38v21.42c0,4.56-2.04,7.92-6.12,10.08
		c-1.92,1.02-5.82,1.98-11.28,1.98c-3.72,0-6.84-0.54-9.42-1.08c-4.02-0.84-9.12-3.06-9.12-12.06v-27.72h-4.86V264.02z"/>
	<path class="st0" d="M346.25,265.63h-4.44v-1.62h31.02c12.3,0,16.74,4.86,16.74,10.08c0,6.6-6.6,8.76-12.06,9.12v0.6
		c7.62,0.84,11.46,5.4,11.46,12.6c0,3.18-0.06,5.7,1.62,5.7c1.14,0,2.1-1.44,2.7-2.28l1.62,0.9c-2.1,3.42-6,5.76-12,5.76
		c-7.74,0-12.48-3.66-12.54-11.64c-0.06-10.02-1.02-10.8-4.14-10.8h-2.1v19.92h5.04v1.62h-27.54v-1.62h4.62V265.63z M364.13,282.25
		h2.28c2.82,0,4.26-0.78,4.26-7.98v-3.72c0-2.4-1.44-4.92-3.84-4.92h-2.7V282.25z"/>
	<path class="st0" d="M425.63,280.69c3.84,1.98,7.14,6.78,7.14,12.36c0,10.26-9.3,13.44-18,13.44c-3.3,0-6.72-1.26-9.6-2.82
		l-6.48,2.82h-1.5l-0.42-14.88h1.92c3,7.08,8.88,13.26,17.04,13.26c2.52,0,5.76-1.02,5.76-4.02c0-3.54-3.9-5.04-6.6-6.24l-4.56-2.04
		c-8.7-3.9-13.14-9.12-13.14-15.66c0-8.76,6.3-13.8,14.7-13.8c3.36,0,6.6,1.02,9.6,2.46l6.48-2.46h1.38l0.48,13.74h-1.62
		c-3-6.48-8.52-12.12-16.08-12.12c-2.28,0-5.1,1.2-5.1,3.9c0,3.24,3.96,4.56,6.36,5.82L425.63,280.69z"/>
</g>
<g>
	<path class="st1" d="M182.94,245.8c0,1.12-0.26,2.19-0.77,3.22c-0.51,1.02-1.21,1.9-2.09,2.62l0.1,0.19
		c-1.52,1.36-3.22,2.59-5.09,3.7c-0.42,0.13-1.02,0.39-1.8,0.79c-0.46,0-0.76,0.1-0.89,0.29c-0.27,0-0.66,0.07-1.16,0.2
		c-0.5,0.14-0.88,0.2-1.14,0.2c-0.58,0-1.9-0.2-3.97-0.6c-2.07-0.4-3.11-1.4-3.11-3c0-0.34,0.06-0.6,0.19-0.79
		c0.34-0.48,0.84-1.04,1.51-1.68c0.8-0.78,1.38-1.18,1.75-1.18c0.18,0,0.44,0.06,0.8,0.18s0.64,0.18,0.83,0.18l0.19-0.29
		c0-0.05,0-0.75,0-2.11c0-0.22-0.02-0.56-0.06-1s-0.06-0.77-0.06-1c0-0.3-0.06-0.54-0.17-0.7c-0.13-0.06-0.24-0.1-0.34-0.1
		c-0.14,0-0.23,0.06-0.26,0.19l-0.19-0.1c-0.37,0.27-0.8,0.41-1.3,0.41c-0.16-0.1-0.31-0.28-0.44-0.56c-0.14-0.28-0.2-0.52-0.2-0.71
		c0-1.52,1.33-2.94,3.98-4.25c2.3-1.14,4.3-1.7,5.98-1.7s3.02,0.42,4.03,1.25c1.2,0.96,2.08,1.87,2.64,2.74
		C182.59,243.27,182.94,244.47,182.94,245.8z M177.18,247.24c0-0.18-0.05-0.42-0.14-0.74c-0.1-0.32-0.14-0.58-0.14-0.77
		c0-0.05-0.06-0.15-0.19-0.31s-0.2-0.26-0.22-0.29c-0.18-0.29-0.51-0.52-1.01-0.7c-0.43-0.14-0.85-0.22-1.25-0.22
		c-0.13,0-0.24,0.04-0.34,0.12c-0.18,0.77-0.27,1.83-0.29,3.19c0,1.58-0.04,2.65-0.12,3.19c0.19,0.05,0.38,0.07,0.58,0.07
		c0.83,0,1.57-0.39,2.21-1.18C176.87,248.88,177.18,248.09,177.18,247.24z"/>
	<path class="st1" d="M200.12,252.06c0,0.05-0.01,0.12-0.04,0.22c-0.02,0.1-0.04,0.17-0.04,0.22c-0.1,0.26-0.58,0.92-1.44,1.99
		c-0.86,1.07-1.36,1.61-1.49,1.61c-0.22,0-0.47-0.08-0.74-0.25c-0.27-0.17-0.46-0.35-0.58-0.54c-0.43-0.9-0.86-1.79-1.3-2.69
		c-0.72-1.36-1.29-2.04-1.7-2.04c-0.14,0-0.66,0.18-1.56,0.53c-0.53,0.21-1.19,0.37-1.99,0.48c-1.17,0.18-1.84,0.28-2.02,0.31
		c-0.4,0.53-0.79,1.31-1.18,2.35c-0.43,1.21-0.77,2.03-1.01,2.45l-0.53-0.19c-0.05,0.13-0.1,0.19-0.17,0.19
		c-0.26,0-0.75-0.17-1.49-0.5c-0.8-0.37-1.2-0.65-1.2-0.84c0,0.03,0.02-0.02,0.07-0.14c0.29-1.23,0.58-2.46,0.86-3.7
		c0.35-1.39,0.74-2.59,1.18-3.6c0.16-0.37,0.68-1.26,1.56-2.69c0.67-1.2,1.75-2.96,3.24-5.28c0.27-0.4,0.7-0.74,1.3-1.03
		c0.51-0.22,1.02-0.45,1.54-0.67l0.65-0.31c0.13,0,0.33,0.18,0.6,0.55c0.18,0.26,0.35,0.51,0.53,0.77c1.25,1.71,2.5,3.77,3.74,6.17
		c0.58,1.09,1.63,3.25,3.17,6.48C200.11,251.96,200.12,252.02,200.12,252.06z M191.72,247.53c0-0.03-0.04-0.1-0.13-0.2
		c-0.09-0.1-0.12-0.2-0.11-0.3l-0.12-0.22c-0.27-0.19-0.5-0.53-0.7-1.01l0.02,0.02c0-0.03-0.02-0.05-0.05-0.05
		c0.08,0-0.01,0.02-0.26,0.05c-0.08,0.22-0.25,0.54-0.52,0.94s-0.44,0.72-0.52,0.96l0.43,0.19l-0.02,0.02l0.02-0.02
		c0.02,0,0.38-0.04,1.08-0.12C191.43,247.73,191.72,247.64,191.72,247.53z"/>
	<path class="st1" d="M216.87,238.29c0,0.9-0.09,2.23-0.28,4.01c-0.18,1.78-0.28,3.12-0.28,4.03c0,0.53,0.04,1.32,0.12,2.39
		s0.12,1.86,0.12,2.39c0,0.9-0.06,1.62-0.17,2.16c-0.08,0.34-0.42,0.68-1.03,1.03c-0.74,0.43-1.16,0.71-1.27,0.84
		c-0.03,0.11-0.1,0.25-0.19,0.41c-0.19,0.18-0.47,0.37-0.84,0.58c-0.37,0.21-0.66,0.31-0.86,0.31l-0.1-0.19
		c-0.05,0-0.12,0.01-0.2,0.02c-0.09,0.02-0.16,0.02-0.2,0.02l-0.19-0.05c-0.38-0.27-0.76-0.7-1.13-1.27
		c-0.5-0.78-0.82-1.26-0.96-1.42c-1.1-1.17-2.74-2.93-4.9-5.28l-0.19,0.1c0,0.4,0.03,1,0.08,1.79s0.08,1.39,0.08,1.79
		c0,0.62-0.02,1-0.05,1.12c-0.03,0.12-0.12,0.21-0.26,0.28c-0.19,0.1-0.38,0.26-0.55,0.5c-0.5,0.4-0.99,0.79-1.49,1.18
		c-0.7,0.54-1.23,0.82-1.58,0.84l-0.22-0.12c-0.3-0.34-0.59-0.84-0.85-1.52c-0.26-0.68-0.4-1.25-0.4-1.72
		c0-0.35,0.01-0.88,0.02-1.58c0.02-0.7,0.02-1.23,0.02-1.58c0-0.93,0.1-2.2,0.29-3.82c0.24-1.84,0.38-3.12,0.41-3.84
		c0.02-0.46,0.3-0.93,0.84-1.39c0.45-0.37,0.9-0.73,1.34-1.08c0.4-0.38,0.77-0.58,1.1-0.58c0.48,0,0.82,0.15,1.01,0.46
		c1.7,1.39,4.02,3.62,6.96,6.7h0.31c0.13-0.45,0.22-1.3,0.29-2.57c0.05-1.09,0.22-1.93,0.5-2.52c0.5-1.01,1.7-2.01,3.6-3
		c0.05-0.03,0.13-0.05,0.24-0.05c0.16,0,0.34,0.07,0.54,0.2S216.87,238.13,216.87,238.29z"/>
	<path class="st1" d="M232.95,249.71c0,2.06-1.01,3.76-3.02,5.09c-1.79,1.18-3.76,1.78-5.9,1.78c-1.98,0-4.47-0.54-7.46-1.63
		l-0.29-0.41c0-1.31,0.06-2.21,0.19-2.69c0.05-0.19,0.22-0.32,0.5-0.38c0.24-0.06,0.69-0.3,1.34-0.7c0.59-0.37,1-0.55,1.22-0.55
		c0.13,0,0.44,0.14,0.94,0.41c0.64,0.34,1.18,0.58,1.63,0.74c0.77,0.26,1.54,0.38,2.3,0.38c1.18,0,2.22-0.4,3.12-1.2
		c-0.34-0.5-1.19-0.74-2.57-0.74c-0.3,0-0.7,0.01-1.18,0.04c-0.48,0.02-0.78,0.04-0.89,0.04c-0.64,0-1.39-0.1-2.26-0.31
		c-0.72-0.21-1.45-0.41-2.18-0.6l-0.19-0.31h-0.31c-1.09-0.94-1.63-2.19-1.63-3.74c0-1.74,0.94-3.22,2.83-4.44
		c1.68-1.1,3.45-1.66,5.3-1.66c1.41,0,2.86,0.32,4.34,0.96c1.62,0.67,2.79,1.54,3.53,2.59c0.08,0.14,0.12,0.31,0.12,0.5l-0.02,0.19
		c-0.18,0.24-0.74,0.6-1.7,1.09c-0.96,0.49-1.58,0.73-1.85,0.73c-0.22,0-0.41-0.1-0.56-0.29c-0.15-0.19-0.28-0.3-0.37-0.34
		c-3.01-0.99-4.94-1.49-5.78-1.49c-0.19,0-0.4,0.11-0.61,0.34c-0.22,0.22-0.32,0.43-0.32,0.62c0,0.66,0.63,1.18,1.9,1.56
		c0.93,0.29,1.82,0.43,2.69,0.43c0.22,0,0.56-0.02,1.01-0.05c0.45-0.03,0.78-0.05,1.01-0.05c0.38,0,1.38,0.21,3,0.62
		c0.7,0.19,1.25,0.64,1.63,1.34C232.78,248.21,232.95,248.91,232.95,249.71z"/>
	<path class="st1" d="M262.91,245.13c0,1.02-0.08,1.77-0.24,2.23c-0.06,0.18-0.5,1-1.3,2.47c-1.04,1.94-2.4,3.47-4.08,4.61
		c-0.62,0.4-1.44,0.77-2.45,1.1c-0.85,0.25-1.7,0.52-2.54,0.79c-0.48,0.16-0.95,0.24-1.42,0.24c-0.82,0-1.48-0.18-1.99-0.55
		c-0.11-0.08-0.54-0.61-1.3-1.58c-1.2-1.58-1.8-3.4-1.8-5.45c0-0.35,0.06-0.86,0.18-1.52s0.18-1.16,0.18-1.5
		c0-0.19-0.06-0.45-0.17-0.77c-0.16-0.42-0.25-0.66-0.26-0.74c-0.06-0.22-0.09-0.62-0.07-1.2c0.02-0.51-0.03-0.91-0.14-1.2
		c0.42-0.5,1.21-1.1,2.38-1.82c1.23-0.77,2.1-1.15,2.62-1.15c0.83,0,1.25,1.02,1.25,3.07c0,0.29-0.01,0.64-0.04,1.07
		c-0.02,0.42-0.04,0.68-0.04,0.78c0,0.43,0.04,1.05,0.12,1.85c0.16,1.73,0.27,2.72,0.34,2.98c0.32,1.23,0.96,1.85,1.92,1.85
		c0.66,0,1.22-0.31,1.7-0.94c0.42-0.58,0.62-1.2,0.62-1.87c0-0.83-0.22-2.04-0.66-3.61c-0.44-1.58-0.66-2.76-0.66-3.56
		c0-0.35,0.7-0.94,2.11-1.78c1.36-0.8,2.26-1.2,2.69-1.2c0.75,0,1.48,1.06,2.18,3.17C262.62,242.67,262.91,244.09,262.91,245.13z"/>
	<path class="st1" d="M279.83,238.29c0,0.9-0.09,2.23-0.28,4.01c-0.18,1.78-0.28,3.12-0.28,4.03c0,0.53,0.04,1.32,0.12,2.39
		s0.12,1.86,0.12,2.39c0,0.9-0.06,1.62-0.17,2.16c-0.08,0.34-0.42,0.68-1.03,1.03c-0.74,0.43-1.16,0.71-1.27,0.84
		c-0.03,0.11-0.1,0.25-0.19,0.41c-0.19,0.18-0.47,0.37-0.84,0.58c-0.37,0.21-0.66,0.31-0.86,0.31l-0.1-0.19
		c-0.05,0-0.12,0.01-0.2,0.02c-0.09,0.02-0.16,0.02-0.2,0.02l-0.19-0.05c-0.38-0.27-0.76-0.7-1.13-1.27
		c-0.5-0.78-0.82-1.26-0.96-1.42c-1.1-1.17-2.74-2.93-4.9-5.28l-0.19,0.1c0,0.4,0.03,1,0.08,1.79s0.08,1.39,0.08,1.79
		c0,0.62-0.02,1-0.05,1.12c-0.03,0.12-0.12,0.21-0.26,0.28c-0.19,0.1-0.38,0.26-0.55,0.5c-0.5,0.4-0.99,0.79-1.49,1.18
		c-0.7,0.54-1.23,0.82-1.58,0.84l-0.22-0.12c-0.3-0.34-0.59-0.84-0.85-1.52c-0.26-0.68-0.4-1.25-0.4-1.72
		c0-0.35,0.01-0.88,0.02-1.58c0.02-0.7,0.02-1.23,0.02-1.58c0-0.93,0.1-2.2,0.29-3.82c0.24-1.84,0.38-3.12,0.41-3.84
		c0.02-0.46,0.3-0.93,0.84-1.39c0.45-0.37,0.9-0.73,1.34-1.08c0.4-0.38,0.77-0.58,1.1-0.58c0.48,0,0.82,0.15,1.01,0.46
		c1.7,1.39,4.02,3.62,6.96,6.7h0.31c0.13-0.45,0.22-1.3,0.29-2.57c0.05-1.09,0.22-1.93,0.5-2.52c0.5-1.01,1.7-2.01,3.6-3
		c0.05-0.03,0.13-0.05,0.24-0.05c0.16,0,0.34,0.07,0.54,0.2S279.83,238.13,279.83,238.29z"/>
	<path class="st1" d="M313.51,249.9c0,0.18-0.06,0.4-0.19,0.67c-0.13,0.27-0.26,0.46-0.38,0.55h-0.31
		c-0.66,0.88-1.16,1.48-1.52,1.79c-0.36,0.31-1.01,0.75-1.96,1.31c-0.13,0.08-0.33,0.18-0.6,0.29c-0.69,0.67-1.81,1.24-3.36,1.7
		c-1.39,0.42-2.65,0.62-3.77,0.62c-1.89,0-3.62-0.44-5.21-1.32c-1.71-0.94-2.92-2.24-3.62-3.89c0.03-0.99,0.07-1.98,0.12-2.95
		c0.06-1.15,0.26-2.1,0.58-2.86c0.85-1.95,2.26-3.55,4.22-4.8c1.97-1.25,4.02-1.87,6.17-1.87c2.08,0,3.86,0.8,5.35,2.4
		c0.21,0.16,0.48,0.46,0.82,0.89c0.42,0.88,0.68,2.11,0.79,3.7l-0.31,0.1c-0.05,0.06-0.12,0.22-0.22,0.47
		c-0.1,0.25-0.21,0.4-0.36,0.44c-2.29,0.66-3.75,0.98-4.39,0.98c-0.16,0-0.29-0.14-0.38-0.43c-0.06-0.22-0.1-0.43-0.1-0.62
		c0-0.16,0.02-0.39,0.06-0.7s0.06-0.54,0.06-0.7c0-0.9-0.47-1.34-1.42-1.34c-0.54,0-1.19,0.17-1.92,0.5l-0.19-0.1
		c-2.14,1.42-3.22,2.55-3.22,3.38c0,0.35,0.17,0.78,0.5,1.3c0.46,0.69,1.04,1.16,1.73,1.42c0.51,0.19,1.23,0.29,2.16,0.29
		c1.44,0,3.18-0.37,5.21-1.1c0.29-0.1,0.98-0.48,2.06-1.15c0.96-0.59,1.56-0.89,1.8-0.89c0.1,0,0.2,0.02,0.31,0.05l0.1,0.19h0.31
		C313.15,248.94,313.51,249.5,313.51,249.9z"/>
	<path class="st1" d="M331.35,238.31c0,0.27-0.02,0.65-0.07,1.13c-0.06,0.54-0.1,0.91-0.12,1.1c-0.02,1.01-0.06,2.52-0.12,4.54
		c-0.05,0.27-0.07,0.57-0.07,0.89c0,0.19,0.02,0.49,0.05,0.9c0.03,0.41,0.05,0.71,0.05,0.9c0,0.42-0.05,1.03-0.14,1.85
		c-0.1,0.82-0.14,1.43-0.14,1.85c0,0.19,0.02,0.48,0.07,0.88c0.05,0.39,0.07,0.68,0.07,0.88c0,0.38-0.06,0.66-0.19,0.84
		c-0.21,0.29-0.34,0.49-0.38,0.6h-0.38c-0.29,0.29-0.78,0.6-1.46,0.95c-0.69,0.34-1.17,0.64-1.44,0.9c-0.5,0.48-0.89,0.72-1.18,0.72
		c-0.22,0-0.43-0.07-0.62-0.22c-0.26-0.56-0.38-1.39-0.38-2.5c0-0.46,0.04-1.16,0.12-2.09s0.12-1.62,0.12-2.09
		c0-0.34-0.02-0.66-0.05-0.96c-1.36,0.13-3.38,0.39-6.07,0.79c-0.06,0.94-0.2,2.54-0.41,4.78c-0.03,0.29-0.19,0.5-0.48,0.65
		c-0.1,0.05-0.37,0.14-0.82,0.26c-1.81,0.5-2.73,0.74-2.76,0.74c-0.75,0-1.24-0.66-1.46-1.99c-0.1-0.56-0.14-1.5-0.14-2.83
		c0-2.75,0.36-6.54,1.08-11.35c3.04-1.52,4.54-2.28,4.49-2.28c0.35,0,0.65,0.25,0.89,0.74c0.19,0.02,0.31,0.07,0.36,0.17
		c0.05,0.1,0.09,0.19,0.12,0.29s0.05,0.19,0.05,0.29c0,0.29-0.04,0.82-0.11,1.6c-0.07,0.78-0.11,1.36-0.11,1.76
		c0,0.8,0.06,1.56,0.19,2.28c2.06-0.24,3.73-0.47,4.99-0.7c-0.14-0.7-0.22-1.38-0.22-2.02c0-0.77,0.1-1.54,0.31-2.33
		c0.82-0.34,1.63-0.67,2.45-1.01c0.91-0.4,1.69-0.82,2.33-1.25c0.18-0.11,0.37-0.17,0.58-0.17c0.43,0,0.67,0,0.72,0
		C331.24,237.87,331.35,238.04,331.35,238.31z"/>
	<path class="st1" d="M349.08,252.06c0,0.05-0.01,0.12-0.04,0.22c-0.02,0.1-0.04,0.17-0.04,0.22c-0.1,0.26-0.58,0.92-1.44,1.99
		c-0.86,1.07-1.36,1.61-1.49,1.61c-0.22,0-0.47-0.08-0.74-0.25c-0.27-0.17-0.46-0.35-0.58-0.54c-0.43-0.9-0.86-1.79-1.3-2.69
		c-0.72-1.36-1.29-2.04-1.7-2.04c-0.14,0-0.66,0.18-1.56,0.53c-0.53,0.21-1.19,0.37-1.99,0.48c-1.17,0.18-1.84,0.28-2.02,0.31
		c-0.4,0.53-0.79,1.31-1.18,2.35c-0.43,1.21-0.77,2.03-1.01,2.45l-0.53-0.19c-0.05,0.13-0.1,0.19-0.17,0.19
		c-0.26,0-0.75-0.17-1.49-0.5c-0.8-0.37-1.2-0.65-1.2-0.84c0,0.03,0.02-0.02,0.07-0.14c0.29-1.23,0.58-2.46,0.86-3.7
		c0.35-1.39,0.74-2.59,1.18-3.6c0.16-0.37,0.68-1.26,1.56-2.69c0.67-1.2,1.75-2.96,3.24-5.28c0.27-0.4,0.7-0.74,1.3-1.03
		c0.51-0.22,1.02-0.45,1.54-0.67l0.65-0.31c0.13,0,0.33,0.18,0.6,0.55c0.18,0.26,0.35,0.51,0.53,0.77c1.25,1.71,2.5,3.77,3.74,6.17
		c0.58,1.09,1.63,3.25,3.17,6.48C349.07,251.96,349.08,252.02,349.08,252.06z M340.68,247.53c0-0.03-0.04-0.1-0.13-0.2
		c-0.09-0.1-0.12-0.2-0.11-0.3l-0.12-0.22c-0.27-0.19-0.5-0.53-0.7-1.01l0.02,0.02c0-0.03-0.02-0.05-0.05-0.05
		c0.08,0-0.01,0.02-0.26,0.05c-0.08,0.22-0.25,0.54-0.52,0.94c-0.26,0.4-0.44,0.72-0.52,0.96l0.43,0.19l-0.02,0.02l0.02-0.02
		c0.02,0,0.38-0.04,1.08-0.12C340.39,247.73,340.68,247.64,340.68,247.53z"/>
	<path class="st1" d="M371.23,251.18c0,0.62-0.59,1.42-1.76,2.39c-1.18,0.97-2.08,1.45-2.7,1.45l-0.17-0.02
		c-0.16-0.11-0.37-0.3-0.62-0.55c-0.18-0.29-0.5-1.17-0.98-2.64c-0.45-1.31-0.8-2.1-1.06-2.35c-0.03-0.03-0.07-0.05-0.12-0.05
		c-0.06,0-0.13,0.06-0.19,0.17c-0.16,0.35-0.41,0.87-0.74,1.56c-0.4,0.72-1.03,1.74-1.9,3.07c-0.51,0.77-1.35,1.31-2.52,1.63
		c-0.06,0.02-0.11,0.02-0.14,0.02c-0.43,0-0.7-0.3-0.79-0.89c-0.46-2.61-1.21-4.77-2.23-6.48c-0.35,0.51-0.74,1.33-1.16,2.46
		s-0.69,1.78-0.8,1.96c-0.1,0.11-0.24,0.18-0.43,0.19c-0.26,0-0.41,0.02-0.46,0.05c-0.26,0.11-0.78,0.49-1.56,1.13
		c-0.66,0.54-1.14,0.82-1.46,0.82c-0.45,0-0.79-0.32-1.03-0.96c-0.37-0.94-0.56-1.42-0.58-1.44c-0.16-0.22-0.24-0.42-0.24-0.58
		c0-0.13,0.06-0.34,0.19-0.62c0.13-0.29,0.18-0.52,0.14-0.7l0.22,0.07c0.06-0.06,0.28-0.44,0.65-1.13c0.53-0.96,1.06-1.92,1.58-2.88
		c0.61-1.12,1.07-2.11,1.39-2.98c0.37-0.93,0.73-1.64,1.08-2.14c0.1-0.13,0.22-0.44,0.36-0.94c0.13-0.42,0.28-0.69,0.46-0.82
		c0.5-0.32,1.09-0.61,1.78-0.86c0.75-0.27,1.39-0.41,1.92-0.41c0.18,0,0.66,0.83,1.46,2.5c0.94,1.98,1.43,2.99,1.46,3.02
		c0.7-1.5,1.2-2.86,1.49-4.08l-0.22-0.07l-0.02-0.41c0.5-0.34,1.26-0.7,2.3-1.1c1.1-0.43,1.9-0.65,2.4-0.65
		c0.38,0,0.66,0.19,0.84,0.58c0.45,0.99,0.91,2.32,1.39,3.98c0.67,2.3,1.08,3.66,1.22,4.06c0.06,0.22,0.27,0.62,0.62,1.2
		c0.29,0.46,0.46,0.88,0.5,1.25c0.02,0.18,0.1,0.54,0.24,1.08C371.17,250.52,371.23,250.89,371.23,251.18z"/>
	<path class="st1" d="M386.31,242.92c0,3.44-3.18,5.72-9.55,6.84c0,0.94-0.01,1.89-0.02,2.83c0,1.38-0.06,2.26-0.17,2.66
		c-0.06,0.24-0.21,0.46-0.43,0.65c-0.22,0.19-0.45,0.28-0.67,0.26l-2.33-0.14c-0.14-0.02-0.38,0.01-0.71,0.07
		c-0.33,0.06-0.56,0.1-0.71,0.1c-0.72,0-1.13-0.28-1.22-0.84c-0.25-1.58-0.38-4.02-0.38-7.3c0-2.03,0.12-3.63,0.36-4.8
		c0.06-0.27,0.22-0.62,0.46-1.03c0.3-0.51,0.49-0.85,0.55-1.01c0.96-2.32,3.18-3.48,6.65-3.48c2.13,0,3.9,0.34,5.33,1.01
		C385.35,239.64,386.31,241.03,386.31,242.92z M380.38,242.82c0-0.48-0.14-0.89-0.43-1.22s-0.66-0.5-1.13-0.5
		c-0.93,0-1.59,0.68-1.99,2.04c-0.14,0.53-0.3,1.57-0.46,3.12c1.01-0.05,1.91-0.38,2.71-0.98
		C379.95,244.6,380.38,243.78,380.38,242.82z"/>
	<path class="st1" d="M417.01,245.8c0,1.12-0.26,2.19-0.77,3.22c-0.51,1.02-1.21,1.9-2.09,2.62l0.1,0.19
		c-1.52,1.36-3.22,2.59-5.09,3.7c-0.42,0.13-1.02,0.39-1.8,0.79c-0.46,0-0.76,0.1-0.89,0.29c-0.27,0-0.66,0.07-1.16,0.2
		c-0.5,0.14-0.88,0.2-1.14,0.2c-0.58,0-1.9-0.2-3.97-0.6c-2.07-0.4-3.11-1.4-3.11-3c0-0.34,0.06-0.6,0.19-0.79
		c0.34-0.48,0.84-1.04,1.51-1.68c0.8-0.78,1.38-1.18,1.75-1.18c0.18,0,0.44,0.06,0.8,0.18s0.64,0.18,0.83,0.18l0.19-0.29
		c0-0.05,0-0.75,0-2.11c0-0.22-0.02-0.56-0.06-1s-0.06-0.77-0.06-1c0-0.3-0.06-0.54-0.17-0.7c-0.13-0.06-0.24-0.1-0.34-0.1
		c-0.14,0-0.23,0.06-0.26,0.19l-0.19-0.1c-0.37,0.27-0.8,0.41-1.3,0.41c-0.16-0.1-0.31-0.28-0.44-0.56c-0.14-0.28-0.2-0.52-0.2-0.71
		c0-1.52,1.33-2.94,3.98-4.25c2.3-1.14,4.3-1.7,5.98-1.7s3.02,0.42,4.03,1.25c1.2,0.96,2.08,1.87,2.64,2.74
		C416.67,243.27,417.01,244.47,417.01,245.8z M411.25,247.24c0-0.18-0.05-0.42-0.14-0.74c-0.1-0.32-0.14-0.58-0.14-0.77
		c0-0.05-0.06-0.15-0.19-0.31s-0.2-0.26-0.22-0.29c-0.18-0.29-0.51-0.52-1.01-0.7c-0.43-0.14-0.85-0.22-1.25-0.22
		c-0.13,0-0.24,0.04-0.34,0.12c-0.18,0.77-0.27,1.83-0.29,3.19c0,1.58-0.04,2.65-0.12,3.19c0.19,0.05,0.38,0.07,0.58,0.07
		c0.83,0,1.57-0.39,2.21-1.18C410.95,248.88,411.25,248.09,411.25,247.24z"/>
	<path class="st1" d="M433.14,241.12c0,0.34-0.03,0.68-0.1,1.03l-0.29,0.31c-0.91,0.22-2.23,0.42-3.96,0.6
		c-1.62,0.16-2.96,0.24-4.03,0.24c-1.17,0-1.75,0.33-1.75,0.98c0,0.18,0.02,0.33,0.07,0.46c0.13,0.13,0.39,0.19,0.79,0.19
		c2.18,0,4.27-0.23,6.29-0.7c0.11-0.02,0.21-0.02,0.29-0.02c0.3,0,0.67,0.32,1.09,0.97c0.42,0.65,0.64,1.08,0.64,1.28l-0.02,0.17
		c-0.1,0.1-0.16,0.24-0.18,0.43c-0.02,0.19-0.07,0.31-0.13,0.36c-0.24,0.21-0.6,0.51-1.08,0.91l-0.22-0.1l-0.19,0.19
		c-0.53-0.13-0.9-0.19-1.1-0.19c-0.66,0-1.79,0.06-3.41,0.17c-1.86,0.14-2.91,0.29-3.17,0.43c-0.03,0.35-0.1,0.78-0.19,1.3
		c1.1,0.3,2.36,0.46,3.77,0.46c0.83,0,1.7-0.09,2.59-0.26c1.1-0.22,1.87-0.36,2.3-0.41c0.06-0.03,0.14-0.05,0.22-0.05
		c0.11,0,0.21,0.02,0.29,0.05c0.11,0.34,0.31,0.84,0.6,1.51c0,0.19,0.06,0.42,0.19,0.7c-0.21,0.19-0.54,0.46-0.98,0.79
		c-2.94,1.6-6.52,2.4-10.73,2.4c-2.13,0-3.64-0.66-4.54-1.99c0.1-0.27,0.16-0.58,0.19-0.91c0.02-0.24,0.02-0.55,0-0.94
		c-0.02-0.51-0.02-0.82-0.02-0.94c0-0.59,0.05-1.51,0.16-2.76c0.1-1.25,0.16-2.19,0.16-2.83c0-0.9-0.02-2.03-0.07-3.41
		c0.25-0.42,0.76-0.82,1.51-1.22c0.82-0.42,1.34-0.77,1.56-1.06c0.34-0.4,0.54-0.6,0.6-0.6c5.22,0,9.01,0.1,11.38,0.29
		C432.64,239.04,433.14,239.76,433.14,241.12z"/>
</g>
<path class="st1" d="M153.73,169.14c-0.52,0.67-1.32,1.1-2.23,1.1h-4.55c-0.91,0-1.71-0.44-2.23-1.1h-4.95v136.45h4.35v-13.41
	c0-1.57,1.27-2.85,2.85-2.85h4.55c1.56,0,2.83,1.27,2.83,2.83v13.43h4.35V169.14H153.73z M154.33,282.79c0,1.57-1.27,2.83-2.83,2.83
	h-4.55c-1.57,0-2.83-1.27-2.83-2.83v-13.7c0-1.57,1.27-2.83,2.83-2.83h4.55c1.57,0,2.83,1.27,2.83,2.83V282.79z M154.33,259.72
	c0,1.57-1.27,2.83-2.83,2.83h-4.55c-1.57,0-2.83-1.27-2.83-2.83v-13.7c0-1.57,1.27-2.83,2.83-2.83h4.55c1.57,0,2.83,1.27,2.83,2.83
	V259.72z M154.33,236.64c0,1.57-1.27,2.83-2.83,2.83h-4.55c-1.57,0-2.83-1.27-2.83-2.83v-13.7c0-1.57,1.27-2.83,2.83-2.83h4.55
	c1.57,0,2.83,1.27,2.83,2.83V236.64z M154.33,213.56c0,1.57-1.27,2.83-2.83,2.83h-4.55c-1.57,0-2.83-1.27-2.83-2.83v-13.7
	c0-1.57,1.27-2.83,2.83-2.83h4.55c1.57,0,2.83,1.27,2.83,2.83V213.56z M154.33,190.49c0,1.57-1.27,2.83-2.83,2.83h-4.55
	c-1.57,0-2.83-1.27-2.83-2.83v-13.7c0-1.57,1.27-2.83,2.83-2.83h4.55c1.57,0,2.83,1.27,2.83,2.83V190.49z"/>
<path class="st1" d="M442.43,305.59c0.52-0.67,1.32-1.1,2.23-1.1h4.55c0.91,0,1.71,0.44,2.23,1.1h4.95V169.14h-4.35v13.41
	c0,1.57-1.27,2.85-2.85,2.85h-4.55c-1.56,0-2.83-1.27-2.83-2.83v-13.43h-4.35v136.45H442.43z M441.82,191.94
	c0-1.57,1.27-2.83,2.83-2.83h4.55c1.57,0,2.83,1.27,2.83,2.83v13.7c0,1.57-1.27,2.83-2.83,2.83h-4.55c-1.57,0-2.83-1.27-2.83-2.83
	V191.94z M441.82,215.02c0-1.57,1.27-2.83,2.83-2.83h4.55c1.57,0,2.83,1.27,2.83,2.83v13.7c0,1.57-1.27,2.83-2.83,2.83h-4.55
	c-1.57,0-2.83-1.27-2.83-2.83V215.02z M441.82,238.1c0-1.57,1.27-2.83,2.83-2.83h4.55c1.57,0,2.83,1.27,2.83,2.83v13.7
	c0,1.57-1.27,2.83-2.83,2.83h-4.55c-1.57,0-2.83-1.27-2.83-2.83V238.1z M441.82,261.17c0-1.57,1.27-2.83,2.83-2.83h4.55
	c1.57,0,2.83,1.27,2.83,2.83v13.7c0,1.57-1.27,2.83-2.83,2.83h-4.55c-1.57,0-2.83-1.27-2.83-2.83V261.17z M441.82,284.25
	c0-1.57,1.27-2.83,2.83-2.83h4.55c1.57,0,2.83,1.27,2.83,2.83v13.7c0,1.57-1.27,2.83-2.83,2.83h-4.55c-1.57,0-2.83-1.27-2.83-2.83
	V284.25z"/>
</svg>
